<svg width="176" height="202" viewBox="0 0 176 202" fill="none" xmlns="http://www.w3.org/2000/svg">
<path d="M-146.693 38.7532C-138.22 27.5442 -127.542 19.0921 -116.584 14.9203C-108.127 11.7004 -101.544 10.9333 -49.2094 7.06927C-27.1102 5.438 -22.8805 5.10358 -13.7153 4.26658C-4.77851 3.45004 33.7405 0.76004 43.5299 0.268496C56.9687 -0.405396 67.8234 0.631233 76.2605 3.39517C82.2041 5.34166 94.5193 12.5513 99.4131 16.9481C108.73 25.3192 111.905 30.5243 119.71 50.2182C123.841 60.6419 131.824 81.542 136.675 94.6326C138.457 99.4388 140.82 105.778 141.927 108.72C143.033 111.661 144.936 116.73 146.153 119.983C147.37 123.235 153.443 139.318 159.649 155.721C170.13 183.426 171.101 186.27 173.315 195.757C175.253 204.057 175.708 207.078 175.747 211.897C175.848 224.408 172.971 235.685 166.987 246.23C163.394 252.562 165.495 250.288 131.076 285.115C108.497 307.962 101.196 313.012 82.155 318.944C73.549 321.626 67.3792 322.953 10.6498 334.319C-3.89275 337.232 -23.8961 341.247 -33.8023 343.239C-62.9166 349.095 -73.0798 350.376 -85.1581 349.713C-92.7864 349.294 -102.222 347.105 -108.705 344.25C-118.039 340.139 -128.498 331.355 -134.983 322.179C-141.322 313.212 -142.455 310.344 -152.089 278.894C-156.915 263.14 -163.887 240.879 -167.584 229.426C-182.363 183.626 -190.759 154.369 -192.15 143.82C-193.096 136.641 -192.619 128.3 -190.916 122.233C-189.206 116.143 -182.631 102.454 -173.238 85.4314C-152.936 48.6389 -149.2 42.0692 -146.693 38.7532Z" fill="url(#paint0_linear_221_1033)"/>
<defs>
<linearGradient id="paint0_linear_221_1033" x1="-151.5" y1="31.3381" x2="74.3929" y2="319.355" gradientUnits="userSpaceOnUse">
<stop stop-color="#4F4FD6"/>
<stop offset="1" stop-color="#F57EB1"/>
</linearGradient>
</defs>
</svg>
