<svg width="389" height="394" viewBox="0 0 389 394" fill="none" xmlns="http://www.w3.org/2000/svg">
<g filter="url(#filter0_f_221_723)">
<path d="M-6.69316 190.627C1.78037 182.635 12.4583 176.609 23.4162 173.635C31.8733 171.339 38.4558 170.792 90.7906 168.037C112.89 166.874 117.12 166.636 126.285 166.039C135.221 165.457 173.741 163.539 183.53 163.188C196.969 162.708 207.823 163.447 216.26 165.418C222.204 166.805 234.519 171.946 239.413 175.081C248.73 181.049 251.905 184.76 259.71 198.801C263.841 206.233 271.824 221.134 276.675 230.467C278.457 233.894 280.82 238.414 281.927 240.511C283.033 242.608 284.936 246.222 286.153 248.541C287.37 250.86 293.443 262.327 299.649 274.021C310.13 293.775 311.101 295.802 313.315 302.566C315.253 308.484 315.708 310.638 315.747 314.073C315.848 322.993 312.971 331.034 306.987 338.552C303.394 343.067 305.495 341.445 271.076 366.276C248.497 382.565 241.196 386.165 222.155 390.395C213.549 392.307 207.379 393.253 150.65 401.357C136.107 403.434 116.104 406.296 106.198 407.717C77.0834 411.891 66.9202 412.805 54.8419 412.332C47.2136 412.033 37.778 410.473 31.2951 408.437C21.9612 405.506 11.5019 399.243 5.01682 392.702C-1.32157 386.308 -2.45457 384.263 -12.0887 361.84C-16.915 350.608 -23.8872 334.737 -27.5838 326.571C-42.3635 293.917 -50.7593 273.057 -52.1498 265.537C-53.096 260.418 -52.6188 254.471 -50.9155 250.145C-49.2065 245.804 -42.6305 236.043 -33.2376 223.907C-12.9361 197.675 -9.20003 192.991 -6.69316 190.627Z" fill="url(#paint0_linear_221_723)"/>
</g>
<defs>
<filter id="filter0_f_221_723" x="-215.429" y="0.246506" width="693.979" height="574.999" filterUnits="userSpaceOnUse" color-interpolation-filters="sRGB">
<feFlood flood-opacity="0" result="BackgroundImageFix"/>
<feBlend mode="normal" in="SourceGraphic" in2="BackgroundImageFix" result="shape"/>
<feGaussianBlur stdDeviation="81.4" result="effect1_foregroundBlur_221_723"/>
</filter>
<linearGradient id="paint0_linear_221_723" x1="-11.5" y1="185.34" x2="129.784" y2="438" gradientUnits="userSpaceOnUse">
<stop stop-color="#4F4FD6"/>
<stop offset="1" stop-color="#F57EB1"/>
</linearGradient>
</defs>
</svg>
