<svg width="24" height="24" viewBox="0 0 24 24" fill="none" xmlns="http://www.w3.org/2000/svg">
<path d="M3.25 18C3.25 18.8457 3.42813 19.5687 3.92969 20.0703C4.43125 20.5719 5.15426 20.75 6 20.75H18C18.8457 20.75 19.5687 20.5719 20.0703 20.0703C20.5719 19.5687 20.75 18.8458 20.75 18V9.25H3.25V18ZM14.5 13.082C14.5328 13.0818 14.5653 13.0882 14.5957 13.1006C14.6258 13.1129 14.6536 13.1305 14.6768 13.1533C14.6999 13.1764 14.7179 13.2042 14.7305 13.2344C14.743 13.2646 14.7499 13.2974 14.75 13.3301C14.75 13.3628 14.743 13.3955 14.7305 13.4258C14.7179 13.4561 14.7 13.4846 14.6768 13.5078H14.6758L11.3457 16.8467V16.8477C11.3228 16.8706 11.2955 16.8889 11.2656 16.9014C11.2355 16.9139 11.2026 16.9199 11.1699 16.9199C11.1374 16.9199 11.1052 16.9138 11.0752 16.9014C11.0451 16.8889 11.0172 16.8707 10.9941 16.8477L9.33594 15.1895C9.29186 15.1421 9.26751 15.0793 9.26855 15.0146C9.2697 14.9499 9.296 14.8876 9.3418 14.8418C9.3876 14.796 9.44988 14.7697 9.51465 14.7686C9.56324 14.7678 9.61072 14.7812 9.65137 14.8066L9.68945 14.8359L10.8135 15.96L11.167 16.3125L11.5205 15.96L14.3203 13.1592L14.3242 13.1562C14.3471 13.133 14.3742 13.1143 14.4043 13.1016C14.4345 13.0888 14.4672 13.0822 14.5 13.082ZM6 4.75C5.15426 4.75001 4.43125 4.92813 3.92969 5.42969C3.42813 5.93126 3.25 6.65426 3.25 7.5V8.75H20.75V7.5C20.75 6.65425 20.5719 5.93126 20.0703 5.42969C19.5687 4.92813 18.8457 4.75 18 4.75H16.25V6C16.25 6.06631 16.2236 6.12988 16.1768 6.17676C16.1299 6.22363 16.0663 6.25 16 6.25C15.9337 6.24999 15.8701 6.22363 15.8232 6.17676C15.7764 6.12988 15.75 6.0663 15.75 6V4.75H8.25V6C8.25 6.0663 8.22364 6.12987 8.17676 6.17676C8.12988 6.22363 8.0663 6.25 8 6.25C7.93371 6.24999 7.87012 6.22363 7.82324 6.17676C7.77637 6.12988 7.75 6.0663 7.75 6V4.75H6ZM2.75 7.4707L2.74707 7.44238C2.69704 7.01076 2.7449 6.57346 2.8877 6.16309C3.0306 5.75259 3.26492 5.37962 3.57227 5.07227C3.87962 4.76491 4.25258 4.5306 4.66309 4.3877C5.07347 4.2449 5.51075 4.19705 5.94238 4.24707L5.9707 4.25H7.75V3C7.75 2.9337 7.77637 2.87012 7.82324 2.82324C7.87012 2.77637 7.93371 2.75001 8 2.75C8.0663 2.75 8.12988 2.77637 8.17676 2.82324C8.22364 2.87013 8.25 2.9337 8.25 3V4.25H15.75V3C15.75 2.9337 15.7764 2.87012 15.8232 2.82324C15.8701 2.77637 15.9337 2.75001 16 2.75C16.0663 2.75 16.1299 2.77637 16.1768 2.82324C16.2236 2.87012 16.25 2.93369 16.25 3V4.25H18.0293L18.0576 4.24707C18.4892 4.19704 18.9265 4.24491 19.3369 4.3877C19.7474 4.5306 20.1204 4.76492 20.4277 5.07227C20.7351 5.37962 20.9694 5.75258 21.1123 6.16309C21.2551 6.57347 21.303 7.01075 21.2529 7.44238L21.25 7.4707V18.0293L21.2529 18.0576C21.303 18.4893 21.2551 18.9265 21.1123 19.3369C20.9694 19.7474 20.7351 20.1204 20.4277 20.4277C20.1204 20.7351 19.7474 20.9694 19.3369 21.1123C18.9265 21.2551 18.4892 21.303 18.0576 21.2529L18.0293 21.25H5.9707L5.94238 21.2529C5.51075 21.303 5.07346 21.2551 4.66309 21.1123C4.25258 20.9694 3.87962 20.7351 3.57227 20.4277C3.26492 20.1204 3.0306 19.7474 2.8877 19.3369C2.7449 18.9265 2.69704 18.4892 2.74707 18.0576L2.75 18.0293V7.4707Z" stroke="url(#paint0_linear_221_1226)"/>
<defs>
<linearGradient id="paint0_linear_221_1226" x1="4.48273" y1="4.69031" x2="22.3367" y2="7.5963" gradientUnits="userSpaceOnUse">
<stop stop-color="#5050DD"/>
<stop offset="1" stop-color="#FC80B6"/>
</linearGradient>
</defs>
</svg>
