<svg width="24" height="24" viewBox="0 0 24 24" fill="none" xmlns="http://www.w3.org/2000/svg">
<g clip-path="url(#clip0_221_1218)">
<mask id="path-1-inside-1_221_1218" fill="white">
<path d="M12 0C18.6172 0 24 5.3828 24 12C24 18.6172 18.6172 24 12 24C5.3828 24 0 18.6172 0 12C0 5.3828 5.3828 0 12 0ZM12 1.85938C6.40898 1.85938 1.85938 6.40898 1.85938 12C1.85938 17.591 6.40898 22.1406 12 22.1406C17.591 22.1406 22.1406 17.591 22.1406 12C22.1406 6.40898 17.592 1.85938 12 1.85938ZM12 5.56836C12.5139 5.56839 12.9295 5.98321 12.9297 6.49707V11.6094L16.2754 14.1191C16.6862 14.4268 16.7705 15.01 16.4619 15.4199C16.2797 15.6653 16.0003 15.793 15.7168 15.793C15.5226 15.7929 15.3274 15.7319 15.1602 15.6064L11.4424 12.8184C11.2081 12.6436 11.0703 12.367 11.0703 12.0742V6.49707C11.0705 5.98319 11.4861 5.56836 12 5.56836Z"/>
</mask>
<path d="M12 5.56836L12.0001 4.56836H12V5.56836ZM12.9297 6.49707H13.9297V6.49672L12.9297 6.49707ZM12.9297 11.6094H11.9297V12.1093L12.3296 12.4093L12.9297 11.6094ZM16.2754 14.1191L15.6753 14.9191L15.676 14.9196L16.2754 14.1191ZM16.4619 15.4199L15.6629 14.8185L15.659 14.8238L16.4619 15.4199ZM15.7168 15.793L15.7165 16.793H15.7168V15.793ZM15.1602 15.6064L15.7602 14.8065L15.7601 14.8064L15.1602 15.6064ZM11.4424 12.8184L12.0424 12.0183L12.0404 12.0168L11.4424 12.8184ZM11.0703 6.49707L10.0703 6.49672V6.49707H11.0703ZM12 0V1C18.0649 1 23 5.93508 23 12H24H25C25 4.83051 19.1695 -1 12 -1V0ZM24 12H23C23 18.0649 18.0649 23 12 23V24V25C19.1695 25 25 19.1695 25 12H24ZM12 24V23C5.93508 23 1 18.0649 1 12H0H-1C-1 19.1695 4.83051 25 12 25V24ZM0 12H1C1 5.93508 5.93508 1 12 1V0V-1C4.83051 -1 -1 4.83051 -1 12H0ZM12 1.85938V0.859375C5.8567 0.859375 0.859375 5.8567 0.859375 12H1.85938H2.85938C2.85938 6.96127 6.96127 2.85938 12 2.85938V1.85938ZM1.85938 12H0.859375C0.859375 18.1433 5.8567 23.1406 12 23.1406V22.1406V21.1406C6.96127 21.1406 2.85938 17.0387 2.85938 12H1.85938ZM12 22.1406V23.1406C18.1433 23.1406 23.1406 18.1433 23.1406 12H22.1406H21.1406C21.1406 17.0387 17.0387 21.1406 12 21.1406V22.1406ZM22.1406 12H23.1406C23.1406 5.85676 18.1443 0.859375 12 0.859375V1.85938V2.85938C17.0396 2.85938 21.1406 6.96121 21.1406 12H22.1406ZM12 5.56836L11.9999 6.56836C11.9627 6.56836 11.9297 6.53664 11.9297 6.49742L12.9297 6.49707L13.9297 6.49672C13.9293 5.42977 13.0651 4.56842 12.0001 4.56836L12 5.56836ZM12.9297 6.49707H11.9297V11.6094H12.9297H13.9297V6.49707H12.9297ZM12.9297 11.6094L12.3296 12.4093L15.6753 14.9191L16.2754 14.1191L16.8755 13.3192L13.5298 10.8094L12.9297 11.6094ZM16.2754 14.1191L15.676 14.9196C15.6461 14.8972 15.6373 14.8527 15.663 14.8185L16.4619 15.4199L17.2609 16.0213C17.9038 15.1672 17.7264 13.9564 16.8748 13.3187L16.2754 14.1191ZM16.4619 15.4199L15.659 14.8238C15.6655 14.815 15.6761 14.806 15.6883 14.8C15.6992 14.7947 15.7089 14.793 15.7168 14.793V15.793V16.793C16.2994 16.793 16.8838 16.5291 17.2648 16.0161L16.4619 15.4199ZM15.7168 15.793L15.7171 14.793C15.7247 14.793 15.7329 14.7942 15.7411 14.7969C15.7496 14.7997 15.7561 14.8034 15.7602 14.8065L15.1602 15.6064L14.5601 16.4064C14.9047 16.6648 15.3115 16.7929 15.7165 16.793L15.7168 15.793ZM15.1602 15.6064L15.7601 14.8064L12.0423 12.0183L11.4424 12.8184L10.8424 13.6184L14.5602 16.4065L15.1602 15.6064ZM11.4424 12.8184L12.0404 12.0168C12.0611 12.0323 12.0703 12.0538 12.0703 12.0742H11.0703H10.0703C10.0703 12.6802 10.3552 13.2549 10.8444 13.6199L11.4424 12.8184ZM11.0703 12.0742H12.0703V6.49707H11.0703H10.0703V12.0742H11.0703ZM11.0703 6.49707L12.0703 6.49742C12.0703 6.53658 12.0373 6.56836 12 6.56836V5.56836V4.56836C10.9348 4.56836 10.0707 5.42981 10.0703 6.49672L11.0703 6.49707Z" fill="url(#paint0_linear_221_1218)" mask="url(#path-1-inside-1_221_1218)"/>
</g>
<defs>
<linearGradient id="paint0_linear_221_1218" x1="2.76923" y1="3" x2="24.694" y2="6.56447" gradientUnits="userSpaceOnUse">
<stop stop-color="#5050DD"/>
<stop offset="1" stop-color="#FC80B6"/>
</linearGradient>
<clipPath id="clip0_221_1218">
<rect width="24" height="24" fill="white"/>
</clipPath>
</defs>
</svg>
