<svg width="24" height="24" viewBox="0 0 24 24" fill="none" xmlns="http://www.w3.org/2000/svg">
<path d="M17.8018 11.6333L12.0996 14.105C12.036 14.1325 11.9637 14.1324 11.9004 14.105L6.19824 11.6333L5.5 11.3306V16.1255C5.50001 17.1095 6.28425 17.9683 7.34766 18.5591C8.64907 19.2821 10.3415 19.627 12.0029 19.6265C13.6642 19.6259 15.3546 19.28 16.6523 18.5591C17.7158 17.9683 18.5 17.1095 18.5 16.1255V11.3306L17.8018 11.6333ZM11.8008 4.48291L2.43652 8.5415L1.37793 8.99951L2.43652 9.4585C7.63712 11.7121 6.51042 11.2246 11.8008 13.5171L12 13.603L12.1992 13.5171L18.1133 10.9536L19.793 10.2261L17.9756 9.99854L11.9688 9.24756C11.832 9.23031 11.735 9.10604 11.752 8.96924C11.7669 8.84968 11.8641 8.75959 11.9805 8.75049L12.0312 8.75146L20.5596 9.81787L20.6953 9.83447L20.8203 9.78076L21.5635 9.4585L22.6221 8.99951L21.5635 8.5415L12.1992 4.48291L12 4.39697L11.8008 4.48291ZM4.99902 11.1138L4.69824 10.9839L0.649414 9.229C0.450279 9.1424 0.449908 8.85656 0.649414 8.77002L11.9004 3.89502C11.9638 3.86753 12.0362 3.86753 12.0996 3.89502L23.3506 8.77002C23.55 8.85651 23.5498 9.1423 23.3506 9.229L21.5518 10.0083L21.251 10.1392V19.1255C21.251 19.2635 21.1389 19.3753 21.001 19.3755C20.8629 19.3755 20.751 19.2636 20.751 19.1255V10.356L20.0518 10.6587L19.3018 10.9839L19.001 11.1138V16.1255C19.0009 17.1475 18.3336 18.1351 17.0703 18.8931C15.8131 19.6474 14.0309 20.1255 12 20.1255C9.96915 20.1255 8.18691 19.6474 6.92969 18.8931C5.6664 18.1351 4.99905 17.1475 4.99902 16.1255V11.1138Z" stroke="url(#paint0_linear_221_1213)"/>
<defs>
<linearGradient id="paint0_linear_221_1213" x1="2.76923" y1="5.53092" x2="24.1783" y2="10.3732" gradientUnits="userSpaceOnUse">
<stop stop-color="#5050DD"/>
<stop offset="1" stop-color="#FC80B6"/>
</linearGradient>
</defs>
</svg>
