<svg width="18" height="18" viewBox="0 0 18 18" fill="none" xmlns="http://www.w3.org/2000/svg">
<path fill-rule="evenodd" clip-rule="evenodd" d="M1.5227 6.86175C1.5227 3.91426 3.90879 1.52483 6.85217 1.52483C9.7956 1.52483 12.1816 3.91426 12.1816 6.86175C12.1816 9.8093 9.7956 12.1987 6.85217 12.1987C3.90879 12.1987 1.5227 9.8093 1.5227 6.86175ZM6.85217 0C3.06782 0 0 3.07211 0 6.86175C0 10.6514 3.06782 13.7235 6.85217 13.7235C8.4765 13.7235 9.9688 13.1575 11.1432 12.2118L16.7003 17.7767C16.9976 18.0744 17.4797 18.0744 17.777 17.7767C18.0743 17.479 18.0743 16.9962 17.777 16.6985L12.2171 11.1308C13.1481 9.9591 13.7043 8.4755 13.7043 6.86175C13.7043 3.07211 10.6365 0 6.85217 0Z" fill="white"/>
</svg>
