<svg width="22" height="24" viewBox="0 0 22 24" fill="none" xmlns="http://www.w3.org/2000/svg">
<path d="M10.9989 0.5C12.3653 0.5 13.7595 1.57953 14.8446 3.88086L14.8505 3.8916C14.8684 3.92748 14.8839 3.96469 14.9012 4.00293L14.7382 3.83984C14.2717 2.86435 13.7202 2.06785 13.1073 1.50586C12.4787 0.929513 11.7605 0.577148 10.9989 0.577148C10.2373 0.577165 9.51912 0.929494 8.8905 1.50586C8.26219 2.08196 7.69727 2.90388 7.22351 3.91309L7.60535 4.09277L7.54382 4.62305C8.65769 4.88837 9.74404 5.25847 10.788 5.72852L10.993 5.82129L11.1981 5.72949C12.2439 5.26142 13.3303 4.891 14.4442 4.62305L15.1053 4.46387L15.1063 4.46582L15.1259 4.46289L15.3524 5.11816C15.7768 6.35208 16.0718 7.62688 16.2333 8.92188L16.2577 9.11816L16.41 9.24414C17.2183 9.91736 17.9696 10.6569 18.6561 11.4541L19.0712 11.9365L19.4413 11.418C19.582 11.2209 19.7173 11.0186 19.8407 10.8223L19.8397 10.8213C20.4337 9.87948 20.8224 8.96183 20.9686 8.12207C21.1149 7.28158 21.0237 6.48547 20.6141 5.84375C20.2041 5.20147 19.5199 4.78705 18.6962 4.56836C17.8812 4.35206 16.8968 4.3173 15.8065 4.45508H15.1981L15.4735 4.42285C15.5265 4.41664 15.58 4.4089 15.6259 4.40234C15.6742 4.39544 15.7154 4.38927 15.7538 4.38477V4.38574L15.7596 4.38477C18.2811 4.05984 19.9448 4.65229 20.6815 5.80566L20.6825 5.80762C21.4223 6.95502 21.2679 8.71146 19.9003 10.8652L19.8993 10.8662C19.7245 11.1437 19.5324 11.4182 19.3221 11.7021L19.1005 12.0029L19.3251 12.3008C19.5315 12.5744 19.723 12.8541 19.8993 13.1338C21.1662 15.1475 21.3839 16.8184 20.7987 17.9707L20.6708 18.1943C20.0714 19.1355 18.8629 19.7031 17.0526 19.7031C16.6194 19.7031 16.1866 19.6744 15.7577 19.6162V19.6152L15.7479 19.6143C15.6551 19.6034 15.575 19.5939 15.4921 19.5801L15.2792 19.5449H15.8104C16.9017 19.6855 17.8866 19.6508 18.702 19.4336C19.5262 19.214 20.2102 18.7981 20.62 18.1562C21.0296 17.5145 21.1198 16.7185 20.9735 15.8779C20.8455 15.1429 20.5328 14.3477 20.0585 13.5293L19.8456 13.1768C19.7202 12.9719 19.5849 12.7749 19.4579 12.5898L19.0917 12.0557L18.6678 12.5449C17.9778 13.3412 17.2241 14.0808 16.4149 14.7559L16.2635 14.8828L16.2391 15.0781C16.0776 16.373 15.7818 17.6485 15.3573 18.8828L15.1376 19.5215L15.1073 19.5166L14.952 19.873C14.9364 19.9089 14.9189 19.9463 14.8983 19.9902C14.8802 20.0289 14.8591 20.074 14.8387 20.1201C13.7597 22.4197 12.3598 23.5 10.993 23.5C9.62706 23.4998 8.23334 22.42 7.14832 20.1191L7.14246 20.1084C7.12288 20.0692 7.10568 20.0292 7.08679 19.9873L7.25867 20.1592C7.72529 21.1353 8.27732 21.9319 8.8905 22.4941C9.51913 23.0705 10.2373 23.4228 10.9989 23.4229C11.7605 23.4229 12.4787 23.0705 13.1073 22.4941C13.7356 21.918 14.3005 21.0961 14.7743 20.0869L14.3915 19.9062L14.454 19.377C13.3401 19.1116 12.2537 18.7417 11.2098 18.2715L11.0048 18.1787L10.7997 18.2705C9.75388 18.7388 8.6676 19.11 7.55359 19.3779L6.8866 19.5371L6.88562 19.5342L6.51843 19.5771C6.46544 19.5834 6.41193 19.5911 6.36609 19.5977C6.31804 19.6045 6.27737 19.6098 6.23914 19.6143L6.2323 19.6152C5.80137 19.6712 5.36731 19.6997 4.9325 19.7021C3.12334 19.7018 1.91544 19.1352 1.31628 18.1943L1.31531 18.1934C0.579355 17.0445 0.736103 15.2819 2.08777 13.1338C2.26263 12.8563 2.45479 12.5814 2.66492 12.2979L2.88757 11.9971L2.66199 11.6992C2.45555 11.4257 2.264 11.146 2.08777 10.8662C0.736185 8.71823 0.579246 6.96022 1.31628 5.80566C2.05329 4.65171 3.71245 4.0548 6.23718 4.38477H6.24402C6.33577 4.39552 6.41678 4.40607 6.50085 4.41992L6.68054 4.44922H6.18347C5.77546 4.39819 5.36458 4.37087 4.953 4.36914H4.95007C3.37277 4.36921 2.03328 4.82127 1.37878 5.84375H1.37781C0.968214 6.48547 0.877973 7.28157 1.02429 8.12207C1.17027 8.96016 1.5562 9.87657 2.14832 10.8164V10.8174C2.27571 11.026 2.41353 11.2262 2.55457 11.418L2.92566 11.9229L3.33582 11.4492C4.02609 10.6529 4.77958 9.9133 5.58875 9.23828L5.74011 9.1123L5.76453 8.91602C5.92604 7.62125 6.22098 6.34643 6.64539 5.1123L6.86316 4.47852L6.88464 4.48242L7.04089 4.12695C7.05666 4.09093 7.07397 4.05378 7.0946 4.00977C7.11432 3.96772 7.13719 3.91813 7.15906 3.86816L7.15808 3.86719C8.23659 1.57576 9.63456 0.500029 10.9989 0.5ZM14.6747 20.2266C14.632 20.2676 14.5753 20.3086 14.5028 20.335C14.4346 20.3597 14.3752 20.3632 14.3387 20.3633L14.3876 19.9395L14.6747 20.2266ZM15.1962 15.7061C14.7841 16.0073 14.3605 16.2978 13.9266 16.5781C13.3092 16.9684 12.6866 17.3273 12.0643 17.6543L11.0966 18.1631L12.1141 18.5625C12.936 18.8848 13.7814 19.1444 14.6425 19.3389L15.0741 19.4365L15.2235 19.0205C15.5539 18.1026 15.8074 17.1588 15.9823 16.1992L16.2079 14.9668L15.1962 15.7061ZM6.0155 16.1992C6.19044 17.1588 6.44391 18.1026 6.77429 19.0205L6.92371 19.4336L7.35242 19.3389C8.21632 19.1483 9.06368 18.8885 9.88562 18.5615L10.8954 18.1602L9.93347 17.6543C9.30984 17.3266 8.68634 16.9679 8.06921 16.5723L8.06531 16.5693L7.74207 16.3613C7.4213 16.151 7.1085 15.933 6.80457 15.708L5.78894 14.9551L6.0155 16.1992ZM10.7792 6.01172C9.06125 6.82624 7.4439 7.83922 5.96179 9.03027L5.80066 9.16016L5.7782 9.36621C5.5875 11.1169 5.58749 12.8831 5.7782 14.6338L5.80066 14.8398L5.96179 14.9697C6.47665 15.3837 7.00867 15.776 7.55554 16.1465L8.1073 16.5098C8.96644 17.0571 9.85938 17.5507 10.7792 17.9883L10.9921 18.0898L11.2069 17.9893C12.1297 17.5546 13.0225 17.0589 13.8807 16.5078C14.6238 16.0352 15.3399 15.5218 16.0253 14.9688L16.1864 14.8389L16.2089 14.6338C16.3044 13.7591 16.3517 12.8797 16.3514 12L16.3427 11.3398C16.3248 10.6804 16.2805 10.0214 16.2089 9.36523L16.1864 9.16016L16.0253 9.03027L15.5048 8.62402C14.9789 8.22433 14.4367 7.84572 13.8798 7.49023L13.2294 7.08984C12.5728 6.69951 11.898 6.3398 11.2079 6.01172L10.994 5.91016L10.7792 6.01172ZM4.77625 10.0664C4.23378 10.5717 3.72386 11.1104 3.24792 11.6787L2.97839 12L3.24792 12.3213C3.72388 12.8894 4.23372 13.4283 4.77625 13.9336L5.69519 14.7881L5.61609 13.5361C5.58435 13.0298 5.56921 12.5176 5.56921 12C5.56921 11.4824 5.58435 10.9704 5.61609 10.4639L5.69519 9.21191L4.77625 10.0664ZM16.3817 10.4639C16.4134 10.9704 16.4286 11.4824 16.4286 12C16.4286 12.5176 16.4134 13.0298 16.3817 13.5361L16.3026 14.7881L17.2216 13.9336C17.7641 13.4283 18.275 12.8896 18.7509 12.3213L19.0194 12L18.7509 11.6787C18.2749 11.1102 17.7641 10.5717 17.2216 10.0664L16.3026 9.21191L16.3817 10.4639ZM14.6405 4.66113C13.7764 4.85167 12.9283 5.11147 12.1063 5.43848L11.0829 5.8457L12.0634 6.34766C12.6874 6.66749 13.3095 7.03117 13.9237 7.42285C14.3614 7.70234 14.7832 7.99206 15.1884 8.29199L16.204 9.04492L15.9774 7.80078C15.8023 6.84108 15.5488 5.8972 15.2186 4.97949L15.0692 4.56641L14.6405 4.66113ZM6.77429 4.97949C6.44391 5.89724 6.19044 6.84104 6.0155 7.80078L5.79089 9.0332L6.80261 8.29395C7.2133 7.99376 7.63498 7.70425 8.06726 7.4248C8.68602 7.03351 9.30982 6.67343 9.93347 6.3457L10.9012 5.83691L9.88367 5.4375C9.06189 5.11498 8.21646 4.85542 7.35535 4.66113L6.92371 4.56445L6.77429 4.97949ZM7.61023 4.05762L7.32996 3.7666C7.3702 3.72938 7.42351 3.69221 7.49109 3.66699C7.56058 3.64106 7.62171 3.63672 7.66003 3.63672L7.61023 4.05762ZM7.27234 3.83008C7.27875 3.82169 7.29611 3.79948 7.31628 3.7793C7.31709 3.77849 7.31742 3.77718 7.31824 3.77637C7.29252 3.80266 7.2759 3.82531 7.27234 3.83008ZM6.66785 18.9561L6.6405 18.877C6.21603 17.6429 5.92039 16.3675 5.75867 15.0723L5.73425 14.877L5.58289 14.751L5.2821 14.4941C4.58639 13.8895 3.93367 13.2369 3.32996 12.54L2.91492 12.0596L2.54578 12.5762C2.40532 12.7728 2.27051 12.9749 2.14734 13.1709C1.55279 14.1133 1.16565 15.0328 1.01941 15.873C0.873266 16.7127 0.963395 17.507 1.37195 18.1484V18.1494C2.02681 19.1798 3.36954 19.626 4.94519 19.626H4.94714C5.37288 19.6242 5.79824 19.5948 6.22058 19.54C6.24583 19.537 6.28257 19.5316 6.3241 19.5176C6.38659 19.4965 6.4838 19.4502 6.56238 19.3486C6.64419 19.2429 6.66785 19.1269 6.66785 19.0391V18.9561Z" stroke="url(#paint0_linear_2029_4)"/>
<path d="M10.9988 10.3671C11.9002 10.3679 12.6307 11.0983 12.6316 11.9999C12.6316 12.9017 11.9007 13.6327 10.9988 13.6327C10.0969 13.6327 9.36597 12.9016 9.36597 11.9999C9.36603 11.1546 10.0085 10.4596 10.8318 10.3759L10.9988 10.3671ZM10.9988 10.4442C10.1397 10.4443 9.44318 11.1409 9.44312 11.9999C9.44312 12.8591 10.1398 13.5555 10.9988 13.5556H10.9998C11.8579 13.5543 12.5529 12.8588 12.5544 12.0009V11.9999C12.5544 11.1408 11.8579 10.4442 10.9988 10.4442Z" stroke="url(#paint1_linear_2029_4)"/>
<defs>
<linearGradient id="paint0_linear_2029_4" x1="2.82996" y1="3.00001" x2="22.3455" y2="5.80838" gradientUnits="userSpaceOnUse">
<stop stop-color="#5050DD"/>
<stop offset="1" stop-color="#FC80B6"/>
</linearGradient>
<linearGradient id="paint1_linear_2029_4" x1="9.35818" y1="10.4003" x2="13.2552" y2="11.0339" gradientUnits="userSpaceOnUse">
<stop stop-color="#5050DD"/>
<stop offset="1" stop-color="#FC80B6"/>
</linearGradient>
</defs>
</svg>
